<?xml version="1.0" encoding="UTF-8" standalone="no"?>
<!-- Created with Inkscape (http://www.inkscape.org/) -->

<svg
   xmlns:dc="http://purl.org/dc/elements/1.1/"
   xmlns:cc="http://creativecommons.org/ns#"
   xmlns:rdf="http://www.w3.org/1999/02/22-rdf-syntax-ns#"
   xmlns:svg="http://www.w3.org/2000/svg"
   xmlns="http://www.w3.org/2000/svg"
   xmlns:sodipodi="http://sodipodi.sourceforge.net/DTD/sodipodi-0.dtd"
   xmlns:inkscape="http://www.inkscape.org/namespaces/inkscape"
   version="1.1"
   width="1000"
   height="1000"
   id="svg6584"
   inkscape:version="0.48.3.1 r9886"
   sodipodi:docname="ferry.svg">
  <sodipodi:namedview
     pagecolor="#ffffff"
     bordercolor="#666666"
     borderopacity="1"
     objecttolerance="10"
     gridtolerance="10"
     guidetolerance="10"
     inkscape:pageopacity="0"
     inkscape:pageshadow="2"
     inkscape:window-width="640"
     inkscape:window-height="480"
     id="namedview7"
     showgrid="false"
     inkscape:zoom="0.236"
     inkscape:cx="500"
     inkscape:cy="500"
     inkscape:window-x="65"
     inkscape:window-y="24"
     inkscape:window-maximized="0"
     inkscape:current-layer="svg6584" />
  <defs
     id="defs6586" />
  <metadata
     id="metadata6589">
    <rdf:RDF>
      <cc:Work
         rdf:about="">
        <dc:format>image/svg+xml</dc:format>
        <dc:type
           rdf:resource="http://purl.org/dc/dcmitype/StillImage" />
        <dc:title />
      </cc:Work>
    </rdf:RDF>
  </metadata>
  <path
     style="color:#000000;fill:#000000;fill-opacity:1;fill-rule:nonzero;stroke:none;stroke-width:2;marker:none;visibility:visible;display:inline;overflow:visible;enable-background:accumulate"
     d="M 395.84375 83.34375 C 372.76042 83.34375 354.15625 101.9167 354.15625 125 L 270.84375 125 C 247.76042 125 229.15625 143.57285 229.15625 166.65625 L 229.15625 419.28125 L 145.84375 458.34375 L 229.15625 625 L 229.15625 708.34375 L 361.96875 747.40625 C 366.52375 748.90625 370.61125 749.96875 375 749.96875 C 379.38875 749.96875 384.19959 748.57225 388.03125 747.40625 L 500 708.34375 L 611.96875 747.40625 C 616.26541 748.82225 620.61125 749.96875 625 749.96875 C 629.38875 749.96875 633.94125 748.65625 638.03125 747.40625 L 770.84375 708.34375 L 770.84375 625 L 854.15625 458.34375 L 770.84375 419.28125 L 770.84375 166.65625 C 770.84375 143.57285 752.23958 125 729.15625 125 L 645.84375 125 C 645.84375 101.9167 627.23958 83.34375 604.15625 83.34375 L 395.84375 83.34375 z M 312.5 208.34375 L 687.5 208.34375 L 687.5 380.21875 L 541.65625 312.5 L 500 291.65625 L 458.34375 312.5 L 312.5 380.21875 L 312.5 208.34375 z M 229.15625 791.65625 C 224.71917 791.65625 219.0825 793.083 216.15625 794.25 L 145.84375 817.6875 L 145.84375 902.3125 L 229.15625 874.96875 L 361.96875 914.09375 C 366.52375 915.59375 370.61125 916.65625 375 916.65625 C 379.38875 916.65625 384.19959 915.30275 388.03125 914.09375 L 500 874.96875 L 611.96875 914.09375 C 616.26541 915.51075 620.61125 916.65625 625 916.65625 C 629.38875 916.65625 633.94125 915.38575 638.03125 914.09375 L 770.84375 874.96875 L 854.15625 902.3125 L 854.15625 817.6875 L 783.84375 794.25 C 779.70208 792.875 775.24084 791.65625 770.84375 791.65625 C 766.44667 791.65625 762.0575 792.875 757.8125 794.25 L 625 833.3125 L 513.03125 794.25 C 508.63459 792.791 504.39708 791.65625 500 791.65625 C 495.60292 791.65625 490.95833 793 486.96875 794.25 L 375 833.3125 L 242.1875 794.25 C 236.80541 792.208 233.59334 791.65625 229.15625 791.65625 z "
     id="path2989" />
</svg>
