<?xml version="1.0" encoding="UTF-8" standalone="no"?>
<!-- Created with Inkscape (http://www.inkscape.org/) -->

<svg
   xmlns:dc="http://purl.org/dc/elements/1.1/"
   xmlns:cc="http://creativecommons.org/ns#"
   xmlns:rdf="http://www.w3.org/1999/02/22-rdf-syntax-ns#"
   xmlns:svg="http://www.w3.org/2000/svg"
   xmlns="http://www.w3.org/2000/svg"
   xmlns:sodipodi="http://sodipodi.sourceforge.net/DTD/sodipodi-0.dtd"
   xmlns:inkscape="http://www.inkscape.org/namespaces/inkscape"
   version="1.1"
   width="1000"
   height="1000"
   id="svg6584"
   inkscape:version="0.48.3.1 r9886"
   sodipodi:docname="heliport.svg">
  <sodipodi:namedview
     pagecolor="#ffffff"
     bordercolor="#666666"
     borderopacity="1"
     objecttolerance="10"
     gridtolerance="10"
     guidetolerance="10"
     inkscape:pageopacity="0"
     inkscape:pageshadow="2"
     inkscape:window-width="887"
     inkscape:window-height="605"
     id="namedview7"
     showgrid="false"
     inkscape:zoom="0.236"
     inkscape:cx="500"
     inkscape:cy="500"
     inkscape:window-x="65"
     inkscape:window-y="24"
     inkscape:window-maximized="0"
     inkscape:current-layer="svg6584" />
  <defs
     id="defs6586" />
  <metadata
     id="metadata6589">
    <rdf:RDF>
      <cc:Work
         rdf:about="">
        <dc:format>image/svg+xml</dc:format>
        <dc:type
           rdf:resource="http://purl.org/dc/dcmitype/StillImage" />
        <dc:title />
      </cc:Work>
    </rdf:RDF>
  </metadata>
  <path
     style="color:#000000;fill:#000000;fill-opacity:1;fill-rule:nonzero;stroke:none;stroke-width:2;marker:none;visibility:visible;display:inline;overflow:visible;enable-background:accumulate"
     d="M 312.5 250 C 289.41688 250 270.84375 268.57295 270.84375 291.65625 C 270.84375 314.73955 289.41688 333.34375 312.5 333.34375 L 354.15625 333.34375 L 395.84375 333.34375 L 562.5 333.34375 L 562.5 416.65625 L 437.5 416.65625 L 259.125 416.65625 C 244.70654 391.78545 218.31684 375 187.5 375 C 141.4763 375 104.15625 412.31875 104.15625 458.34375 C 104.15625 504.36845 141.4763 541.65625 187.5 541.65625 C 211.54342 541.65625 232.19629 530.5995 247.40625 514.3125 L 395.84375 666.65625 C 437.51042 709.41925 468.76042 750 489.59375 750 L 854.15625 750 C 874.98955 750 895.84375 729.17675 895.84375 708.34375 L 895.84375 583.34375 C 895.84375 541.67675 875.79125 521.633 854.15625 500 C 854.15625 500 826.38875 472.23105 812.5 458.34375 C 798.61125 444.45625 770.82292 416.65625 729.15625 416.65625 L 604.15625 416.65625 L 604.15625 333.34375 L 770.84375 333.34375 L 854.15625 333.34375 C 877.23915 333.34375 895.84375 314.73955 895.84375 291.65625 C 895.84375 268.57295 877.23915 250 854.15625 250 L 770.84375 250 L 625 250 L 583.34375 250 L 395.84375 250 L 354.15625 250 L 312.5 250 z M 187.5 416.65625 C 210.51188 416.65625 229.15625 435.33125 229.15625 458.34375 C 229.15625 481.35655 210.51188 500 187.5 500 C 164.48813 500 145.84375 481.35655 145.84375 458.34375 C 145.84375 435.33125 164.48813 416.65625 187.5 416.65625 z "
     id="path2987" />
</svg>
