<?xml version="1.0" encoding="UTF-8" standalone="no"?>
<!-- Created with Inkscape (http://www.inkscape.org/) -->

<svg
   xmlns:dc="http://purl.org/dc/elements/1.1/"
   xmlns:cc="http://creativecommons.org/ns#"
   xmlns:rdf="http://www.w3.org/1999/02/22-rdf-syntax-ns#"
   xmlns:svg="http://www.w3.org/2000/svg"
   xmlns="http://www.w3.org/2000/svg"
   xmlns:sodipodi="http://sodipodi.sourceforge.net/DTD/sodipodi-0.dtd"
   xmlns:inkscape="http://www.inkscape.org/namespaces/inkscape"
   version="1.1"
   width="1000"
   height="1000"
   id="svg6584"
   inkscape:version="0.48.3.1 r9886"
   sodipodi:docname="lodging.svg">
  <sodipodi:namedview
     pagecolor="#ffffff"
     bordercolor="#666666"
     borderopacity="1"
     objecttolerance="10"
     gridtolerance="10"
     guidetolerance="10"
     inkscape:pageopacity="0"
     inkscape:pageshadow="2"
     inkscape:window-width="640"
     inkscape:window-height="480"
     id="namedview7"
     showgrid="false"
     inkscape:zoom="0.236"
     inkscape:cx="500"
     inkscape:cy="500"
     inkscape:window-x="65"
     inkscape:window-y="24"
     inkscape:window-maximized="0"
     inkscape:current-layer="svg6584" />
  <defs
     id="defs6586" />
  <metadata
     id="metadata6589">
    <rdf:RDF>
      <cc:Work
         rdf:about="">
        <dc:format>image/svg+xml</dc:format>
        <dc:type
           rdf:resource="http://purl.org/dc/dcmitype/StillImage" />
        <dc:title />
      </cc:Work>
    </rdf:RDF>
  </metadata>
  <path
     style="color:#000000;fill:#000000;fill-opacity:1;stroke:none;stroke-width:2;marker:none;visibility:visible;display:inline;overflow:visible;enable-background:accumulate"
     d="M 229.15625 229.15625 C 183.1325 229.15625 145.84375 266.475 145.84375 312.5 C 145.84375 358.5249 183.1325 395.84375 229.15625 395.84375 C 275.18 395.84375 312.5 358.5249 312.5 312.5 C 312.5 266.475 275.18 229.15625 229.15625 229.15625 z M 354.15625 312.5 C 354.15625 381.5374 298.19208 437.5 229.15625 437.5 L 166.65625 437.5 C 156.13166 437.5 145.78959 437.50975 145.84375 458.34375 C 145.85875 464.00975 145.84375 483.988 145.84375 500 C 145.84375 520.834 162.01333 520.84375 166.65625 520.84375 L 854.15625 520.84375 L 854.15625 437.5 C 854.15625 395.834 854.17708 312.5 645.84375 312.5 L 354.15625 312.5 z M 187.5 562.5 C 166.66667 562.5 145.84375 583.32325 145.84375 604.15625 C 145.83375 645.43525 145.84375 693.51025 145.84375 729.15625 C 145.84375 749.98925 166.66667 770.84375 187.5 770.84375 C 208.33333 770.84375 229.15625 749.98925 229.15625 729.15625 L 229.15625 645.84375 L 770.84375 645.84375 L 770.84375 729.15625 C 770.84375 749.98925 791.66666 770.84375 812.5 770.84375 C 833.33333 770.84375 854.15625 749.98925 854.15625 729.15625 L 854.15625 604.15625 C 854.15625 583.32325 833.33333 562.5 812.5 562.5 L 187.5 562.5 z "
     id="path2989" />
</svg>
