<?xml version="1.0" encoding="UTF-8" standalone="no"?>
<!-- Created with Inkscape (http://www.inkscape.org/) -->

<svg
   xmlns:dc="http://purl.org/dc/elements/1.1/"
   xmlns:cc="http://creativecommons.org/ns#"
   xmlns:rdf="http://www.w3.org/1999/02/22-rdf-syntax-ns#"
   xmlns:svg="http://www.w3.org/2000/svg"
   xmlns="http://www.w3.org/2000/svg"
   xmlns:sodipodi="http://sodipodi.sourceforge.net/DTD/sodipodi-0.dtd"
   xmlns:inkscape="http://www.inkscape.org/namespaces/inkscape"
   version="1.1"
   width="1000"
   height="1000"
   id="svg6584"
   inkscape:version="0.48.3.1 r9886"
   sodipodi:docname="swimming.svg">
  <sodipodi:namedview
     pagecolor="#ffffff"
     bordercolor="#666666"
     borderopacity="1"
     objecttolerance="10"
     gridtolerance="10"
     guidetolerance="10"
     inkscape:pageopacity="0"
     inkscape:pageshadow="2"
     inkscape:window-width="640"
     inkscape:window-height="480"
     id="namedview7"
     showgrid="false"
     inkscape:zoom="0.236"
     inkscape:cx="500"
     inkscape:cy="500"
     inkscape:window-x="65"
     inkscape:window-y="24"
     inkscape:window-maximized="0"
     inkscape:current-layer="svg6584" />
  <defs
     id="defs6586" />
  <metadata
     id="metadata6589">
    <rdf:RDF>
      <cc:Work
         rdf:about="">
        <dc:format>image/svg+xml</dc:format>
        <dc:type
           rdf:resource="http://purl.org/dc/dcmitype/StillImage" />
        <dc:title />
      </cc:Work>
    </rdf:RDF>
  </metadata>
  <path
     style="color:#000000;fill:#000000;fill-opacity:1;fill-rule:nonzero;stroke:none;stroke-width:2;marker:none;visibility:visible;display:inline;overflow:visible;enable-background:accumulate"
     d="M 609.375 229.1875 C 602.78458 229.1875 591.29792 233.05 585.9375 235.6875 L 419.28125 316.40625 C 397.09709 326.91045 389.02542 359.19795 403.65625 378.90625 L 454.4375 447.9375 L 268.21875 592.46875 L 354.15625 619.8125 L 466.15625 583.34375 C 470.14792 582.00975 474.75916 580.75 479.15625 580.75 C 483.55333 580.75 487.79083 581.92675 492.1875 583.34375 L 604.15625 619.8125 L 662.75 600.28125 L 502.59375 368.5 L 628.90625 304.6875 C 653.98875 292.1458 652.34959 270.6375 649.75 257.8125 C 647.2875 245.6542 632.28 229.1875 609.375 229.1875 z M 687.5 354.1875 C 641.47625 354.1875 604.15625 391.475 604.15625 437.5 C 604.15625 483.5251 641.47625 520.84375 687.5 520.84375 C 733.52375 520.84375 770.84375 483.5251 770.84375 437.5 C 770.84375 391.475 733.52375 354.1875 687.5 354.1875 z M 229.15625 645.84375 C 224.71917 645.84375 219.0825 647.2705 216.15625 648.4375 L 145.84375 671.875 L 145.84375 757.8125 L 229.15625 729.15625 L 341.15625 768.21875 C 345.71125 769.71875 349.7675 770.8125 354.15625 770.8125 C 358.54501 770.8125 363.35583 769.42775 367.1875 768.21875 L 479.15625 729.15625 L 591.15625 768.21875 C 595.45292 769.63575 599.7675 770.8125 604.15625 770.8125 C 608.545 770.8125 613.0975 769.51075 617.1875 768.21875 L 729.15625 729.15625 L 854.15625 770.8125 L 854.15625 684.875 L 742.1875 648.4375 C 738.04583 647.0625 733.55333 645.84375 729.15625 645.84375 C 724.75916 645.84375 720.40125 647.0625 716.15625 648.4375 L 604.15625 684.875 L 492.1875 648.4375 C 487.79083 646.9795 483.55333 645.84375 479.15625 645.84375 C 474.75916 645.84375 470.14584 647.1875 466.15625 648.4375 L 354.15625 684.875 L 242.1875 648.4375 C 236.80541 646.3955 233.59334 645.84375 229.15625 645.84375 z "
     id="path2989" />
</svg>
