<svg xmlns="http://www.w3.org/2000/svg" width="950" height="1000"><path d="M400.013 125c-250 0 -400.013 200 -400.013 300s50 175.013 150 175.013 150 24.976 150 99.976c0 100 75.012 175.013 175.013 175.013 325 0 475.013 -174.988 475.013 -349.987 0 -299.999 -250.013 -400.013 -550.013 -400.013zm-62.513 100.013c34.517 0 62.513 27.958 62.513 62.476 0 34.517 -27.996 62.513 -62.513 62.513 -34.517 0 -62.476 -27.996 -62.476 -62.513 0 -34.517 27.958 -62.476 62.476 -62.476zm200.026 0c34.517 0 62.476 27.959 62.476 62.476 0 34.517 -27.959 62.513 -62.476 62.513 -34.517 0 -62.513 -27.996 -62.513 -62.513 0 -34.517 27.996 -62.476 62.513 -62.476zm199.987 99.976c34.517 0 62.513 27.996 62.513 62.513 0 34.517 -27.996 62.513 -62.513 62.513 -34.517 0 -62.513 -27.996 -62.513 -62.513 0 -34.517 27.996 -62.513 62.513 -62.513zm-574.987 50.026c34.517 0 62.476 27.958 62.476 62.476 0 34.517 -27.958 62.513 -62.476 62.513 -34.517 0 -62.513 -27.996 -62.513 -62.513 0 -34.517 27.996 -62.476 62.513 -62.476zm312.487 249.976c41.422 0 75 33.578 75 75s-33.578 75 -75 75 -75 -33.578 -75 -75 33.578 -75 75 -75z" color="#000" overflow="visible" enable-background="accumulate"/></svg>