<svg xmlns="http://www.w3.org/2000/svg" width="850" height="1000"><path d="M100 75c-62.617 0 -100 37.67 -100 100 0 50 100 125 150 175 99.997 100.001 265.093 190.096 425 350l150 150 -25 25c0 25 25 50 50 50l50 -50 50 -50c0 -25 -25 -49.999 -50 -49.999l-25 25 -150 -150c-143.167 -143.165 -250.002 -325 -350 -425 -50 -50 -125 -150 -175 -150zm175 500c-41.422 0 -75 33.58 -75 75 0 41.42 33.578 75 75 75s75 -33.58 75 -75c0 -41.42 -33.578 -75 -75 -75z" color="#000" overflow="visible" enable-background="accumulate"/></svg>