<svg xmlns="http://www.w3.org/2000/svg" width="850" height="1000"><path d="M225 75.013l-225 199.987l0 400.013c0 25 24.988 49.987 49.987 49.987l178.126 0l96.863 175.013c13.889 25.001 25.025 24.976 50.026 24.976l99.976 0c25 0 36.136 .025 50.026 -24.976l96.863 -175.013l178.126 0c25 0 49.987 -24.988 49.987 -49.987l0 -400.013l-225 -199.987l-399.976 0zm-25.013 199.987l450 0l0 300l-450 0l0 -300zm49.987 49.987l0 200.026l350.026 0l0 -200.026l-350.026 0zm28.126 400.013l71.887 0l0 49.987l49.987 0l0 -49.987l50.026 0l0 49.987l49.987 0l0 -49.987l71.887 0l-28.126 49.987l-43.763 0l0 50.026l17.176 0l-17.176 31.237l0 -31.237l-49.987 0l0 49.987l-50.026 0l0 -49.987l-49.987 0l0 31.237l-17.176 -31.237l17.176 0l0 -50.026l-43.763 0l-28.126 -49.987zm121.876 100.013l50.026 0l0 -50.026l-50.026 0l0 50.026z" color="#000" overflow="visible" enable-background="accumulate"/></svg>