<svg xmlns="http://www.w3.org/2000/svg" width="650" height="1000"><path d="M50 75.001l275 150 275 -150zm100 200l-150 100l0 499.999c0 25 25 50 50 50l550.001 0c25 0 50 -25.001 50 -50l0 -499.999l-150 -100zm50 100l250 0l100 50l0 100l-450 0l0 -100zm-50 349.999c27.7 0 50 22.301 50 50 0 27.7 -22.3 49.999 -50 49.999 -27.7 0 -50 -22.3 -50 -49.999s22.3 -50 50 -50zm350 0c27.7 0 50 22.301 50 50 0 27.7 -22.3 49.999 -50 49.999 -27.7 0 -50 -22.3 -50 -49.999s22.3 -50 50 -50z" color="#000" overflow="visible" enable-background="accumulate"/></svg>