<svg xmlns="http://www.w3.org/2000/svg" width="950" height="1000"><path d="M625.001 150l-25 50 100 37.5l0 112.5l-350 0l0 -50l50 0l0 -24.998c0 -12.305 -12.696 -25 -25 -25l-125 -.001c-25 0 -25 25 -25 25l0 25l75 0l0 50l-53.125 106.25c-14.984 -3.6 -30.792 -6.25 -46.876 -6.25 -110.458 0 -200 89.545 -200 200s89.543 200 200 200 200 -89.545 200 -200c0 0 50 .001 75 .001s25 -25.001 25 -25.001c5.136 -73.53 43.018 -131.201 92.188 -168.751 33.996 -25.96 70.637 -41.98 107.813 -49.999l0 51.563c-86.215 22.23 -150 99.028 -150 192.188 0 110.455 89.543 200 200 200s200 -89.545 200 -200c0 -91.415 -61.554 -166.76 -145.313 -190.626l-54.688 -109.375l0 -125c0 -14.495 -11.626 -30.618 -25 -35.938zm-275 250.001l225 0c-50 25.001 -125 150.001 -125 200.002l-57.812 -.001c-12.642 -49.02 -41.498 -90.298 -82.812 -117.187zm-150 125c69.036 0 125 55.964 125 125s-55.964 125 -125 125 -125 -55.964 -125 -125 55.964 -125 125 -125zm550 0c69.036 0 125 55.964 125 125s-55.964 125 -125 125 -125 -55.964 -125 -125 55.964 -125 125 -125z" color="#000" overflow="visible" enable-background="accumulate"/></svg>