<svg xmlns="http://www.w3.org/2000/svg" width="650" height="1000"><path d="M150 75l0 50l-100 0c-25 0 -50 25 -50 50l0 649.999l50 0l0 100.001l100 0l0 -100.001l350 0l0 100.001l100 0l0 -100.001l50 0l0 -649.999c0 -25 -25 -50 -50 -50l-100 0l0 -50zm-50 150l450 0l0 250.001l-450 0l0 -100.001zm50 400.001c27.7 0 50 22.3 50 50 0 27.7 -22.3 49.999 -50 49.999 -27.7 0 -50 -22.3 -50 -49.999 0 -27.701 22.3 -50 50 -50zm350 0c27.7 0 50 22.3 50 50 0 27.7 -22.3 49.999 -50 49.999 -27.7 0 -50 -22.3 -50 -49.999 0 -27.701 22.3 -50 50 -50z" color="#000" overflow="visible" enable-background="accumulate"/></svg>