<svg xmlns="http://www.w3.org/2000/svg" width="950" height="1000"><path d="M150 150c-27.701 0 -50 22.3 -50 50l0 450c0 27.7 22.3 49.999 50 49.999l550 0c27.701 0 50 -22.3 50 -49.999l0 -50l25 0c25 0 25 -25 25 -25l0 -25l50 0c50 0 100 -50 100 -100.001l0 -150c0 -25 -25 -50 -50 -50l-150 0l0 -50c0 -27.7 -22.3 -50 -50 -50zm600 150l125 0c25 0 25 25.001 25 25.001l0 124.999c0 25.001 -25 50 -50 50l-100 0zm-750 450.001l75 75c12.395 12.395 25 25 50 25 208.333 0 600 0 600 0 25 0 37.561 -12.56 50 -25l75 -75z" color="#000" overflow="visible" enable-background="accumulate"/></svg>