<svg xmlns="http://www.w3.org/2000/svg" width="800" height="1000"><path d="M700.001 75l-112.5 32.815 54.688 148.435 107.813 -31.25zm-181.25 51.565l-146.875 42.185 3.125 6.25 28.126 76.565 25 65.624 146.875 -42.19zm-214.062 60.935l-129.688 37.5 56.25 148.44 129.688 -37.5 -32.813 -84.374zm-196.876 56.25l-107.813 31.25 50 150 112.5 -32.81zm-57.812 181.25l0 450c0 27.7 22.3 50 50 50l650 0c27.701 0 50 -22.301 50 -50l0 -450zm100 100l550 0l0 150l-550 0z" color="#000" overflow="visible" enable-background="accumulate"/></svg>