<svg xmlns="http://www.w3.org/2000/svg" width="750" height="1000"><path d="M50 50c-27.7 0 -50 22.3 -50 50 0 0 0 533.334 0 799.999 0 25.001 25 50 50 50 83.334 0 250 0 250 0l0 -150c0 -27.7 26.43 -50 50 -50l50 0c23.57 0 50 22.301 50 50 0 50 0 100 0 150 0 0 166.667 0 250 0 25 0 50 -25 50 -50 0 -266.664 0 -799.999 0 -799.999 0 -27.7 -22.3 -50 -50 -50zm100 150l150 0l0 100l-150 0zm300 0l150 0l0 100l-150 0zm-300 300l150 0l0 100l-150 0zm300 0l150 0l0 100l-150 0z" color="#000" overflow="visible" enable-background="accumulate"/></svg>