<svg xmlns="http://www.w3.org/2000/svg" width="850" height="1000"><path d="M50 125c-50 50 -50 100 -50 100l500 499.998 75 -25 200 199.999c15.814 15.816 25.313 25.001 45.312 25.001 6.25 0 14.063 0 21.875 -7.811 7.816 -7.814 7.812 -15.624 7.812 -21.875 0 -19.999 -10.894 -31.21 -25 -45.314l-200 -199.999 25 -75 -500 -499.999s-50 0 -100 50zm175 450c-41.422 0 -75 33.58 -75 75 0 41.419 33.578 74.999 75 74.999s75 -33.58 75 -74.999c0 -41.42 -33.578 -75 -75 -75z" color="#000" overflow="visible" enable-background="accumulate"/></svg>