<svg xmlns="http://www.w3.org/2000/svg" width="950" height="1000"><path d="M350 175c-150 0 -300 75 -300 199.999l0 100.001l850 0l0 -100.001c-.001 -124.999 -150 -199.999 -300 -199.999zm25 49.999c13.85 0 25 11.15 25 25.001 0 13.849 -11.15 25 -25 25 -13.85 0 -25 -11.15 -25 -25 0 -13.85 11.15 -25.001 25 -25.001zm200 0c13.85 0 25 11.15 25 25.001 0 13.849 -11.15 25 -25 25 -13.85 0 -25 -11.15 -25 -25 0 -13.85 11.15 -25.001 25 -25.001zm-300 100.001c13.85 0 25 11.149 25 25 0 13.85 -11.15 25 -25 25 -13.85 0 -25 -11.149 -25 -25 0 -13.85 11.15 -25 25 -25zm200 0c13.85 0 25 11.149 25 25 0 13.85 -11.15 25 -25 25 -13.85 0 -25 -11.149 -25 -25 0 -13.85 11.15 -25 25 -25zm200 0c13.85 0 25 11.149 25 25 0 13.85 -11.15 25 -25 25 -13.85 0 -25 -11.149 -25 -25 0 -13.85 11.15 -25 25 -25zm-625 199.999c-25.002 0 -50 25 -50 50 0 25 24.998 49.999 50 49.999l850 0c25.001 0 49.999 -25 50 -49.999 .001 -25.001 -25 -50 -50 -50zm0 150l0 50c0 50 50 100 100 100l650 0c50 0 100 -49.999 100 -100l0 -50z" color="#000" overflow="visible" enable-background="accumulate"/></svg>