<svg xmlns="http://www.w3.org/2000/svg" width="850" height="1000"><path d="M300.004 .013c-27.7 0 -50.026 22.288 -50.026 49.987l-99.976 0c-27.7 0 -50.026 22.288 -50.026 49.987l0 303.15l-99.976 46.876 99.976 199.987l0 100.013l159.376 46.876c5.466 1.8 10.37 3.076 15.637 3.076 5.267 0 11.04 -1.675 15.637 -3.076l134.363 -46.876 134.363 46.876c5.156 1.699 10.372 3.076 15.637 3.076 5.267 0 10.729 -1.576 15.637 -3.076l159.376 -46.876l0 -100.013l99.976 -199.987 -99.976 -46.876l0 -303.15c0 -27.7 -22.325 -49.987 -50.026 -49.987l-99.976 0c0 -27.7 -22.325 -49.987 -50.026 -49.987l-249.976 0zm-100.013 150l450 0l0 206.25l-175.013 -81.263 -49.987 -25.013 -49.987 25.013 -175.013 81.263l0 -206.25zm-100.013 699.976c-5.324 0 -12.089 1.712 -15.6 3.113l-84.376 28.126l0 101.55l99.976 -32.813 159.376 46.95c5.466 1.8 10.37 3.076 15.637 3.076 5.267 0 11.04 -1.625 15.637 -3.076l134.363 -46.95 134.363 46.95c5.156 1.7 10.372 3.076 15.637 3.076 5.267 0 10.729 -1.524 15.637 -3.076l159.376 -46.95 99.976 32.813l0 -101.55l-84.376 -28.126c-4.97 -1.65 -10.324 -3.113 -15.6 -3.113s-10.543 1.463 -15.637 3.113l-159.376 46.876 -134.363 -46.876c-5.276 -1.751 -10.361 -3.113 -15.637 -3.113s-10.85 1.613 -15.637 3.113l-134.363 46.876 -159.376 -46.876c-6.458 -2.45 -10.313 -3.113 -15.637 -3.113z" color="#000" overflow="visible" enable-background="accumulate"/></svg>