<svg xmlns="http://www.w3.org/2000/svg" width="950" height="1000"><path d="M475 175c-325 0 -475 325 -475 325s150 325 475 325 475 -325 475 -325 -150 -325 -475 -325zm-150 250c13.85 0 25 11.149 25 25l0 25l100 0l0 -25c0 -13.85 11.15 -25 25 -25 13.85 0 25 11.149 25 25l0 25l100 0l0 -25c0 -13.85 11.15 -25 25 -25 13.85 0 25 11.149 25 25l0 25l75 0c13.85 0 25 11.15 25 25.001 0 13.849 -11.15 25 -25 25l-75 0l0 25c0 13.85 -11.15 25.001 -25 25.001 -13.85 0 -25 -11.15 -25 -25.001l0 -25l-100 0l0 25c0 13.85 -11.15 25.001 -25 25.001 -13.85 0 -25 -11.15 -25 -25.001l0 -25l-100 0l0 25c0 13.85 -11.15 25.001 -25 25.001 -13.85 0 -25 -11.15 -25 -25.001l0 -25l-75 0c-13.85 0 -25 -11.15 -25 -25 0 -13.85 11.15 -25.001 25 -25.001l75 0l0 -25c0 -13.85 11.15 -25 25 -25z" color="#000" overflow="visible" enable-background="accumulate"/></svg>