<svg xmlns="http://www.w3.org/2000/svg" width="750" height="1000"><path d="M50 50c-27.701 0 -50 22.3 -50 50l0 799.999c0 25 25 50 50 50l450 0c25 0 50 -25 50 -50l0 -250l25 0c25 0 25 25 25 25l0 100c0 50 25 75 75 75s75 -25 75 -75c0 -58.334 0 -225 0 -274.999 0 -50 -100 -100 -100 -150l0 -150l-50 0l-50 -50l0 -50c0 -27.7 -22.3 -50 -50 -50zm50 100l350 0l0 200l-350 0zm450 150l50 0s0 41.665 0 75c0 50 100 100 100 150l0 250c0 25 -25 25 -25 25s-25 0 -25 -25c0 0 0 -100 0 -125 0 -25 -25 -50 -50 -50 -16.667 0 -50 0 -50 0z" color="#000" overflow="visible" enable-background="accumulate"/></svg>