<svg xmlns="http://www.w3.org/2000/svg" width="750" height="1000"><path d="M165 100c-12.65 0 -15 27.98 -15 50l0 100c0 101.56 100 153.125 200 150l0 400c-50 -100 -200 -250 -350 -200 0 0 125 300 375 300s375 -300 375 -300c-150 -49.999 -300 100.001 -350 200l0 -400c100 3.1 200 -48.44 200 -150l0 -100c0 -22.02 -2.34 -50 -15 -50 -9.646 0 -21.281 11.28 -35 25l-75 75 -75 -84.376c-7.829 -8.806 -12.348 -15.625 -25 -15.625 -12.653 0 -17.172 6.82 -25 15.625l-75 84.376 -75 -75c-13.72 -13.72 -25.354 -25 -35 -25z" color="#000" overflow="visible" enable-background="accumulate"/></svg>