<svg xmlns="http://www.w3.org/2000/svg" width="750" height="1000"><path d="M600 25c-100 150 -189.211 250.26 -300 349.999 -105.832 95.274 -300 62.564 -300 200l0 50c0 49.999 50 97.574 50 149.999l0 50c0 75 -25 75 -50 150l50 0l100 -150l0 150l50 0l0 -249.998s0 -50 50 -50 50 50 50 50l0 249.998l50 0l0 -225l50 75 50 150l50 0l-76.562 -314.063c29.474 -17.984 26.562 -51.23 26.562 -85.937 0 -46.6 0 -100 0 -150l200 -274.999 71.875 22.266c14.986 4.643 28.126 2.735 28.126 -9.766 0 -25 -16.331 -30.565 -25 -37.5z" color="#000" overflow="visible" enable-background="accumulate"/></svg>