<svg xmlns="http://www.w3.org/2000/svg" width="850" height="1000"><path d="M800 100c-29.167 0 -55.045 8.17 -73.438 26.562 -18.392 18.392 -26.562 44.27 -26.562 73.438l-700 0l100 450l600 0l0 50l-550 0c-50 0 -50 49.999 0 49.999l550 0c25 0 50 -25 50 -49.999l0 -500s4.33 -32.455 10.938 -39.062c6.607 -6.607 18.229 -10.938 39.062 -10.938 5.551 0 14.612 0 20 0 25 0 30 -12.433 30 -25 0 -12.371 -5 -25 -30 -25 -6.548 0 -13.14 0 -20 0zm-175 649.999c-41.422 0 -75 33.578 -75 75s33.578 75 75 75 75 -33.578 75 -75 -33.578 -75 -75 -75zm-400 0c-41.422 0 -75 33.578 -75 75s33.578 75 75 75 75 -33.578 75 -75 -33.578 -75 -75 -75z" color="#000" overflow="visible" enable-background="accumulate"/></svg>