<svg xmlns="http://www.w3.org/2000/svg" width="850" height="1000"><path d="M675 75c-96.65 0 -175 78.35 -175 175.001 0 21.92 5.141 43.165 12.5 62.5l-412.5 412.501c0 -50 0 -150.001 0 -200.002 0 -75 50 -100 50 -100l50 49.999s0 -133.334 0 -199.999c0 -50 -25 -25 -50 0 -150 150 -150 148.62 -150 250l0 350.002c0 25 25 49.999 50 49.999l350 0c101.38 0 183.334 -83.335 250 -150 25 -25 49.996 -49.369 0 -49.999l-200 0l50 49.999s-25 50 -100 50c-50 0 -150 0 -200 0l412.5 -412.501c19.336 7.36 40.58 12.5 62.5 12.5 96.65 0 175 -78.35 175 -175 0 -96.65 -78.35 -175.001 -175 -175.001zm0 100c41.42 0 75 33.58 75 75 0 41.42 -33.578 75 -75 75 -41.42 0 -75 -33.58 -75 -75 0 -41.42 33.578 -75 75 -75z" color="#000" overflow="visible" enable-background="accumulate"/></svg>