<svg xmlns="http://www.w3.org/2000/svg" width="950" height="1000"><path d="M250.013 200c-27.7 0 -49.987 22.288 -49.987 49.987s22.288 50.026 49.987 50.026l300 0l0 99.976l-364.05 0c-17.302 -29.845 -48.97 -49.987 -85.95 -49.987 -55.229 0 -100.013 44.783 -100.013 100.013 0 55.23 44.784 99.976 100.013 99.976 28.852 0 53.635 -13.268 71.887 -32.813l178.126 182.813c50 51.316 87.5 100.013 112.5 100.013l437.476 0c25 0 50.026 -24.988 50.026 -49.987l0 -150c0 -50 -24.064 -74.053 -50.026 -100.013 0 0 -33.322 -33.323 -49.987 -49.987 -16.667 -16.664 -50.012 -50.026 -100.013 -50.026l-150 0l0 -99.976l300.001 0c27.7 0 50.026 -22.325 50.026 -50.026 0 -27.7 -22.326 -49.987 -50.026 -49.987l-649.988 0zm-150 199.987c27.614 0 49.987 22.41 49.987 50.026s-22.373 49.987 -49.987 49.987 -49.987 -22.372 -49.987 -49.987c0 -27.614 22.373 -50.026 49.987 -50.026z" color="#000" overflow="visible" enable-background="accumulate"/></svg>