<svg xmlns="http://www.w3.org/2000/svg" width="850" height="1000"><path d="M99.979 174.987c-55.229 0 -99.976 44.783 -99.976 100.013 0 55.23 44.747 100.013 99.976 100.013s100.013 -44.783 100.013 -100.013c0 -55.23 -44.784 -100.013 -100.013 -100.013zm150 100.013c0 82.844 -67.157 150 -150 150l-75 0c-12.63 0 -25.04 .012 -24.976 25.013 .018 6.799 0 30.773 0 49.987 0 25.001 19.404 25.013 24.976 25.013l825 0l0 -100.013c0 -49.999 .025 -150 -249.976 -150l-350.026 0zm-199.987 300c-25 0 -49.987 24.988 -49.987 49.987 -.012 49.535 0 107.225 0 150 0 25 24.988 50.026 49.987 50.026s49.987 -25.026 49.987 -50.026l0 -99.976l650.026 0l0 99.976c0 25 24.988 50.026 49.987 50.026s49.987 -25.026 49.987 -50.026l0 -150c0 -25 -24.988 -49.987 -49.987 -49.987l-750 0z" color="#000" overflow="visible" enable-background="accumulate"/></svg>