<svg xmlns="http://www.w3.org/2000/svg" width="950" height="1000"><path d="M475 125c-181.219 0 -332.22 129.12 -367.188 300l-57.812 0c-25 0 -50 25 -50 50l0 50c0 25 25 49.999 50 49.999l57.812 0c34.967 170.886 185.969 300 367.188 300 181.219 0 332.22 -129.114 367.188 -300l57.812 0c25 0 50 -25 50 -49.999l0 -50c0 -25 -25 -50 -50 -50l-57.812 0c-34.967 -170.88 -185.969 -300 -367.188 -300zm0 125c102.823 0 193.42 82.885 225 175l-450 0c31.58 -92.114 122.177 -175 225 -175zm-225 325l450 0c-31.58 92.116 -122.177 175.001 -225 175.001s-193.42 -82.885 -225 -175.001z" color="#000" overflow="visible" enable-background="accumulate"/></svg>