<svg xmlns="http://www.w3.org/2000/svg" width="550" height="1000"><path d="M275 25c-151.878 0 -275 55.966 -275 125l0 150c0 69.035 123.121 125 275 125 151.878 0 275 -55.966 275 -125l0 -150c0 -69.035 -123.121 -125 -275 -125zm-275 375l0 449.999c0 69.036 123.121 125 275 125 151.878 0 275 -55.964 275 -125l0 -449.999c0 69.035 -123.121 124.999 -275 124.999 -151.878 0 -275 -55.964 -275 -124.999zm150 225c37.597 8.77 79.835 14.064 125 14.064 45.166 0 87.402 -5.294 125 -14.064l0 199.999c-37.597 8.77 -79.835 14.065 -125 14.065 -45.166 0 -87.402 -5.296 -125 -14.065z" color="#000" overflow="visible" enable-background="accumulate"/></svg>