<svg xmlns="http://www.w3.org/2000/svg" width="650" height="1000"><path d="M299.999 25c-55.229 0 -100 44.77 -100 100s44.772 100 100 100c55.229 0 100 -44.77 100 -100s-44.771 -100 -100 -100zm-287.5 200l25 100c12.5 50 42.358 50 79.687 50l82.812 0c29.688 50 15.733 123.59 25 200l-45.312 0c-50 0 -129.688 50 -79.687 150l75 150c50 100 125 25 100 -25.001l-75 -149.999c-12.5 -25.001 13.216 -25.001 25 -25.001l123.396 0s59.186 131.38 128.905 221.425c25.736 33.24 54.244 78.575 89.926 78.575 25 0 67.842 -38.635 22.246 -93.05 -85.387 -101.899 -139.472 -206.95 -139.472 -256.949 0 -58.16 -10.217 -180.635 -25 -250.001l75 0c24.4 48.905 62.5 125 62.5 125 27.637 47.87 87.5 44.255 87.5 0 0 -6.074 0 -19.445 -6.976 -33.84l-80.524 -166.159c-5.14 -10.606 -12.671 -25 -50 -25l-387.5 0l-37.5 -125c-15 -50 -87.5 -50 -87.5 0 0 25 8.858 55.355 12.5 75z" color="#000" overflow="visible" enable-background="accumulate"/></svg>