<svg xmlns="http://www.w3.org/2000/svg" width="650" height="1000"><path d="M200.026 50c-25 0 -50.026 24.988 -50.026 49.987l0 50.026l350.026 0l0 -50.026c0 -25 -25.025 -49.987 -50.026 -49.987l-249.976 0zm-50.026 150l0 25.013c0 96.649 78.364 174.976 175.013 174.976s175.013 -78.325 175.013 -174.976l0 -25.013l-350.026 0zm-49.987 250.013c-75 0 -100.013 124.986 -100.013 199.987l0 300l134.4 0l340.613 -499.987l-375 0zm450 0l-340.613 499.987l440.626 0l0 -300c0 -75.001 -25.013 -199.987 -100.013 -199.987z" color="#000" overflow="visible" enable-background="accumulate"/></svg>