<svg xmlns="http://www.w3.org/2000/svg" width="850" height="1000"><path d="M50 150c-27.7 0 -50 22.3 -50 50l0 600c0 27.701 22.3 50 50 50 27.7 0 50 -22.3 50 -50l0 -100.001l150 0l0 100.001c0 27.701 22.3 50 50 50 27.7 0 50 -22.3 50 -50l0 -100.001l150 0l0 100.001c0 27.701 22.3 50 50 50 27.7 0 50 -22.3 50 -50l0 -100.001l150 0l0 100.001c0 27.701 22.3 50 50 50 27.7 0 50 -22.3 50 -50l0 -600c0 -27.7 -22.3 -50 -50 -50 -27.7 0 -50 22.3 -50 50l0 100l-150 0l0 -100c0 -27.7 -22.3 -50 -50 -50 -27.7 0 -50 22.3 -50 50l0 100l-150 0l0 -100c0 -27.7 -22.3 -50 -50 -50 -27.7 0 -50 22.3 -50 50l0 100l-150 0l0 -100c0 -27.7 -22.3 -50 -50 -50zm50 250l150 0l0 199.999l-150 0l0 -199.999zm250 0l150 0l0 199.999l-150 0l0 -199.999zm250 0l150 0l0 199.999l-150 0l0 -199.999z" color="#000" overflow="visible" enable-background="accumulate"/></svg>