<svg xmlns="http://www.w3.org/2000/svg" width="900" height="1000"><path d="M425 75.001c-234.721 0 -425 190.28 -425 424.999 0 234.72 190.279 424.999 425 424.999 131.238 0 248.603 -59.645 326.562 -153.125 -50.94 33.16 -111.25 53.125 -176.562 53.125 -179.492 0 -325 -145.505 -325 -325s145.507 -325 325 -325c65.312 0 125.622 19.964 176.562 53.125 -77.96 -93.48 -195.324 -153.125 -326.562 -153.125zm250 200l-50 150l-175 0l150 100 -75 175 150 -100 150 100 -75 -175 150 -100l-175 0l-50 -150z" color="#000" overflow="visible" enable-background="accumulate"/></svg>