<svg xmlns="http://www.w3.org/2000/svg" width="550" height="1000"><path d="M50 50c-25 0 -50 25 -50 50l0 250c0 50 50 50 50 100l0 450c0 25 25 49.999 50 49.999l50 0c25 0 50 -25 50 -49.999l0 -450c0 -49.999 50 -49.999 50 -100l0 -250c0 -25.001 -25 -50 -50 -50 -12.5 0 -12.5 15.245 -12.5 25l0 200c0 9.755 0 25 -12.5 25s-12.5 -15.245 -12.5 -25l0 -200c0 -9.755 0 -25 -12.5 -25l-50 0c-12.5 0 -12.5 15.245 -12.5 25l0 200c0 9.755 0 25 -12.5 25s-12.5 -15.245 -12.5 -25l0 -200c0 -9.755 0 -25 -12.5 -25zm500 0c-50 0 -143.377 11.755 -175 75 -25 50 -25 175 -25 225l0 200c0 25.001 25 50 50 50l0 300c0 25 25 49.999 50 49.999l50 0c25 0 50 -25 50 -49.999z" color="#000" overflow="visible" enable-background="accumulate"/></svg>