<svg xmlns="http://www.w3.org/2000/svg" width="1050" height="1000"><path d="M637.5 49.999c-48.475 0 -87.5 39.025 -87.5 87.5s39.025 87.5 87.5 87.5 87.5 -39.025 87.5 -87.5 -39.025 -87.5 -87.5 -87.5zm-400 100c-48.475 0 -87.5 39.025 -87.5 87.5s39.025 87.5 87.5 87.5 87.5 -39.025 87.5 -87.5 -39.025 -87.5 -87.5 -87.5zm462.5 100c-18.634 0 -49.32 6.725 -75 25l-162.5 115.625c-44.09 31.375 -3.634 86.59 37.5 59.375l106.25 -70.313s70.052 150.212 43.75 220.313c-.878 2.341 -1.626 4.466 -1.562 6.25l-109.375 290.626c-12.547 33.456 11.59 53.458 35.938 53.124 15.966 -.216 31.238 -9.652 39.062 -28.124l135.937 -321.875s25 149.99 125 150c60.092 .005 104.167 0 137.5 0 37.5 0 37.5 -37.5 37.5 -37.5s0 -37.5 -37.5 -37.5c-25 0 -87.5 -.01 -112.5 0 -53.359 0 -50 -80.125 -50 -125 0 -75.01 -50 -199.999 -50 -199.999l150 100c45.319 30.215 84.576 -23.285 40.625 -56.25l-165.625 -118.75c-30.176 -21.494 -39.841 -24.995 -75 -25 0 0 -25 0 -50 0zm-525 100c-25 0 -36.823 11.825 -50 25l-106.25 106.249c-13.68 13.68 -18.75 25.926 -18.75 43.751 0 25 38.216 36.78 59.375 15.625l90.625 -90.625c50 0 68.75 124.999 50 175l-75 200c-20.773 55.394 57.214 72.43 75 25l75 -199.999s25 49.999 75 49.999l150 0c50 0 50 -75 0 -75l-125 0c-25 0 -25 -50 -25 -75 0 -100 -50 -199.999 -100 -199.999z" color="#000" overflow="visible" enable-background="accumulate"/></svg>