<svg xmlns="http://www.w3.org/2000/svg" width="950" height="1000"><path d="M450.001 99.996c-50 0 -100 25 -100 100 0 26.834 2.184 31.41 7.812 54.69l34.375 142.184 -185.938 114.065 -168.75 -98.441c-5.616 -3.3 -12.938 -3.4 -21.875 -1.55 -8.936 1.85 -15.643 12.434 -15.625 23.435 .018 11 4.818 17.37 12.5 21.875l725 424.999c22.778 13.151 43.33 18.445 62.5 18.75 13.411 0 26.59 -1.75 37.5 -6.25 26.508 -10.895 43.093 -30.59 54.688 -42.185 5.809 -5.815 7.812 -12.905 7.812 -20.315 0 -10.576 -6.438 -21.81 -20.312 -23.435 -8.953 -1.044 -16.224 2.2 -21.875 9.374 -11.737 14.88 -26.388 26.04 -39.062 31.25 -12.674 5.209 -26.69 6.125 -56.25 -10.94l-464.063 -271.874 179.688 -104.686c16.637 -11.4 25.1 -33.54 20.312 -53.125l-20.312 -82.814 178.78 105.24 33.72 128.536c3.854 14.389 14.495 26.8 28.126 32.814l114.062 50c80.304 35.2 91.747 -41.294 40.625 -63.45l-93.75 -40.625 -79.687 -312.475 -153.125 -87.5c-39.313 -22.694 -71.875 -37.5 -96.875 -37.5zm400 100c-55.229 0 -100 44.77 -100 100s44.772 100 100 100c55.229 0 100 -44.77 100 -100s-44.772 -100 -100 -100z" color="#000" overflow="visible" enable-background="accumulate"/></svg>