<svg xmlns="http://www.w3.org/2000/svg" width="850" height="1000"><path d="M425 75c-234.162 0 -425 190.84 -425 424.999 0 234.161 190.838 425 425 425 234.162 0 425 -190.84 425 -425 0 -234.16 -190.838 -425 -425 -425zm0 75c133.301 0 248.68 73.69 307.812 182.815 -55.8 37.02 -107.089 56.365 -107.813 92.185 -.505 24.995 0 32.06 0 50 0 25 13.025 57.169 50 75l87.5 42.19c-10.018 37.039 -26.119 70.53 -46.876 101.561l-65.626 -43.751c-37.5 -25.001 -75 -41.665 -100 -25.001l-75 50.002c-34.669 23.114 -31.049 49.999 -25 75l23.437 96.875c-15.862 2.2 -31.956 3.1 -48.438 3.1 -34.664 0 -68.428 -4.75 -100 -14.06l0 -85.939c0 -50 -25 -75 -50 -100.001 -25 -25 -50 -50 -100 -50l-85.938 0c-9.302 -31.549 -14.063 -65.31 -14.063 -99.974 0 -193.89 156.108 -350 350 -350zm-150 175l-25 100c-7.094 28.38 -26.002 57.665 0 75l75 50c50 33.335 72.049 13.974 100 0l50 -25.001c37.268 -18.635 50 -25 50 -75l0 -100c0 -25 .41 -39.92 -50 -50l-125 -25c-52.363 -10.475 -62.218 -1.15 -75 50z" color="#000" overflow="visible" enable-background="accumulate"/></svg>