<svg xmlns="http://www.w3.org/2000/svg" width="850" height="1000"><path d="M556.239 175.026c-7.908 0 -21.692 4.636 -28.126 7.8l-199.987 96.863c-26.621 12.605 -36.307 51.35 -18.75 75l60.937 82.837 -223.463 173.437 103.126 32.813 134.4 -43.763c4.79 -1.601 10.324 -3.113 15.6 -3.113s10.362 1.412 15.637 3.113l134.363 43.763 70.313 -23.437 -192.187 -278.137 151.576 -76.576c30.098 -15.05 28.132 -40.86 25.013 -56.25 -2.954 -14.59 -20.964 -34.35 -48.45 -34.35zm93.75 150c-55.229 0 -100.013 44.746 -100.013 99.976 0 55.23 44.784 100.013 100.013 100.013 55.229 0 100.013 -44.783 100.013 -100.013 0 -55.23 -44.784 -99.976 -100.013 -99.976zm-550.013 349.987c-5.324 0 -12.089 1.712 -15.6 3.113l-84.376 28.126l0 103.126l99.976 -34.387 134.4 46.876c5.466 1.8 10.333 3.113 15.6 3.113 5.267 0 11.04 -1.662 15.637 -3.113l134.363 -46.876 134.4 46.876c5.156 1.7 10.333 3.113 15.6 3.113 5.267 0 10.729 -1.562 15.637 -3.113l134.363 -46.876 150 49.987l0 -103.126l-134.363 -43.726c-4.97 -1.65 -10.361 -3.113 -15.637 -3.113s-10.506 1.463 -15.6 3.113l-134.4 43.726 -134.363 -43.726c-5.276 -1.75 -10.361 -3.113 -15.637 -3.113s-10.812 1.613 -15.6 3.113l-134.4 43.726 -134.363 -43.726c-6.458 -2.45 -10.313 -3.113 -15.637 -3.113z" color="#000" overflow="visible" enable-background="accumulate"/></svg>