<svg xmlns="http://www.w3.org/2000/svg" width="850" height="1000"><path d="M300 75c-165.685 0 -300 134.315 -300 300s134.315 300.001 300 300.001l250 0l225 224.999c15.814 15.816 25.313 25.001 45.312 25.001 6.25 0 14.063 0 21.875 -7.811 7.816 -7.814 7.812 -15.624 7.812 -21.875 0 -19.999 -10.894 -31.21 -25 -45.314l-225 -225.001l0 -250c0 -165.685 -134.315 -300 -300 -300zm250 400.001l0 149.999l-150 0zm-475 200c-41.422 0 -75 33.58 -75 75 0 41.419 33.578 74.999 75 74.999s75 -33.58 75 -74.999c0 -41.42 -33.578 -75 -75 -75z" color="#000" overflow="visible" enable-background="accumulate"/></svg>