<svg xmlns="http://www.w3.org/2000/svg" width="850" height="1000"><path d="M50 49.999c-23.57 0 -50 25 -50 50l0 350c0 110.801 50 250.002 250 250.002 17.934 0 34.309 -.852 50 -3.101l0 -146.875l-200 0s25 -100.001 150 -100.001c25 0 34.826 3.7 50 9.376l0 -109.375c0 -45.835 18.264 -84.13 50 -100 50 -25 70.186 -14.905 100 0 50 25 50 25 50 25l0 -175.001c0 -25 -26.43 -50 -50 -50 -50 0 -100 50 -200 50 -100 0 -150 -50 -200 -50zm87.5 175.001c34.518 0 62.5 27.98 62.5 62.5 0 34.52 -27.982 62.5 -62.5 62.5 -34.518 0 -62.5 -27.98 -62.5 -62.5 0 -34.52 27.982 -62.5 62.5 -62.5zm262.5 75c-23.57 0 -50 25 -50 50l0 350.002c0 110.8 50 250 250 250 200 0 250 -139.2 250 -250l0 -350.002c0 -25 -26.43 -50 -50 -50 -50 0 -100 50 -200 50 -100 0 -150 -50 -200 -50zm87.5 175.001c34.518 0 62.5 27.98 62.5 62.501 0 34.519 -27.982 62.5 -62.5 62.5 -34.518 0 -62.5 -27.98 -62.5 -62.5 0 -34.52 27.982 -62.501 62.5 -62.501zm225 0c34.518 0 62.5 27.98 62.5 62.501 0 34.519 -27.982 62.5 -62.5 62.5 -34.518 0 -62.5 -27.98 -62.5 -62.5 0 -34.52 27.982 -62.501 62.5 -62.501zm-262.5 275l300 0s-25 100.001 -150 100.001 -150 -100.001 -150 -100.001z" color="#000" overflow="visible" enable-background="accumulate"/></svg>