<svg xmlns="http://www.w3.org/2000/svg" width="850" height="1000"><path d="M474.996 0c-13.85 0 -25 11.15 -25 25l0 949.999c0 13.85 11.15 25.001 25 25.001 13.85 0 25 -11.15 25 -25.001l0 -949.999c0 -13.85 -11.15 -25 -25 -25zm-275 50c-55.229 0 -100 44.77 -100 100s44.772 100 100 100c55.229 0 100 -44.77 100 -100s-44.772 -100 -100 -100zm525 0c-55.229 0 -100 44.77 -100 100s44.772 100 100 100c55.229 0 100 -44.77 100 -100s-44.772 -100 -100 -100zm-600 250l-124.25 375c-4.355 13.15 11.182 25 25.032 25l74.219 0l0 225.001c0 13.849 11.15 25 25 25 13.85 0 25 -11.15 25 -25l0 -225.001l100 0l0 225.001c0 13.849 11.15 25 25 25 13.85 0 25 -11.15 25 -25l0 -225.001l75 0c13.85 0 29.971 -12.076 25 -25l-125 -375zm525 0c-27.701 0 -50 22.3 -50 49.999l0 575c0 13.849 11.15 25 25 25 13.85 0 25 -11.15 25 -25l0 -275.002l150 0l0 275.002c0 13.849 11.15 25 25 25 13.85 0 25 -11.15 25 -25l0 -575c0 -27.7 -22.3 -49.999 -50 -49.999z" color="#000" overflow="visible" enable-background="accumulate"/></svg>