<svg xmlns="http://www.w3.org/2000/svg" width="950" height="1000"><path d="M475 50l-375 250l750 0zm-325 300c-27.701 0 -50 22.3 -50 50l0 350l-87.5 150c-7.417 12.715 -12.5 17.834 -12.5 25 0 25 31.583 25 50 25l850 0c17.749 0 50 0 50 -25 0 -7.31 -4.33 -10.994 -12.5 -25l-87.5 -150l0 -350c0 -27.7 -22.3 -50 -50 -50zm100 100c27.7 0 45.446 22.674 50 49.999l0 300l-100 0l0 -300c0 -27.7 22.3 -49.999 50 -49.999zm225 0c27.7 0 50.434 22.304 50 49.999l0 300l-100 0l0 -300c0 -27.7 22.3 -49.999 50 -49.999zm225 0c27.7 0 50 22.3 50 49.999l0 300l-100 0l0 -300c0 -27.7 22.3 -49.999 50 -49.999z" color="#000" overflow="visible" enable-background="accumulate"/></svg>