<svg xmlns="http://www.w3.org/2000/svg" width="750" height="1000"><path d="M274.989 24.987c-13.85 0 -24.976 11.164 -24.976 25.013l0 75l-200.026 0c-27.7 0 -49.987 22.286 -49.987 49.987 0 27.7 22.288 50.026 49.987 50.026l650.026 0c27.7 0 49.987 -22.326 49.987 -50.026 0 -27.701 -22.288 -49.987 -49.987 -49.987l-200.026 0l0 -75c0 -13.849 -11.124 -25.013 -24.976 -25.013l-200.026 0zm25.013 50.026l150 0l0 49.987l-150 0l0 -49.987zm-250.013 199.987c-27.7 0 -53.755 22.667 -49.2 49.987l99.226 600c4.52 27.325 22.288 50.026 49.987 50.026l450 0c27.7 0 45.432 -22.704 49.987 -50.026l99.226 -600c4.52 -27.325 -21.5 -49.987 -49.2 -49.987l-650.026 0z" color="#000" overflow="visible" enable-background="accumulate"/></svg>