<svg xmlns="http://www.w3.org/2000/svg" width="650" height="1000"><path d="M325.015 50c-61.469 .01 -111.409 44.665 -121.876 103.126 -9.182 -2.15 -18.288 -3.113 -28.126 -3.113 -69.036 0 -124.987 55.99 -124.987 125.026 0 31.955 11.51 60.7 31.237 82.8 -47.261 17.83 -81.263 63.644 -81.263 117.15 0 69.035 50.024 125.026 125.026 125.026l24.976 0l100.013 175.013l0 124.987c0 25 24.988 49.987 49.987 49.987l50.026 0c25 0 49.987 -24.988 49.987 -49.987l0 -125.026l100.013 -174.976 35.926 -.713c64.062 .72 114.076 -59.026 114.076 -124.276l0 -.037c0 -53.506 -34.002 -99.32 -81.263 -117.15 19.727 -22.1 31.237 -50.882 31.237 -82.837 0 -69.035 -55.952 -124.987 -124.987 -124.987 -9.838 0 -18.942 .925 -28.126 3.076 -10.465 -58.46 -60.407 -103.103 -121.876 -103.087zm-75 550.013l150 0l-49.987 99.976l-50.026 0l-49.987 -99.976z" color="#000" overflow="visible" enable-background="accumulate"/></svg>