<svg xmlns="http://www.w3.org/2000/svg" width="1050" height="1000"><path d="M475 150.001l-475 274.999l100 0l0 400c0 25.001 22.3 50 50 50l150 0l0 -250c0 -27.701 22.3 -50 50 -50l349.999 0c27.701 0 49.135 22.314 50 50l0 250l150 0c27.7 0 50 -22.3 50 -50l0 -400l100 0l-475 -274.999c-21.373 -12.376 -42.408 -24.974 -50 -25 -7.594 -.024 -28.298 12.434 -50 25zm-125 475l0 49.999l349.999 0l0 -49.999zm0 100l0 50l349.999 0l0 -50zm0 100l0 50l349.999 0l0 -50z" color="#000" overflow="visible" enable-background="accumulate"/></svg>